<?xml version='1.0' encoding='UTF-8' standalone='no'?>
<!-- Created with Fritzing (http://www.fritzing.org/) -->
<svg xmlns="http://www.w3.org/2000/svg" width="6in" x="0in" version="1.2" y="0in"  height="0.787402in" viewBox="0 0 432 56.6929" baseProfile="tiny" xmlns:svg="http://www.w3.org/2000/svg">
 <g partID="9060382">
  <g id="silkscreen">
   <rect width="431.424" x="0.288" y="0.288" fill="none" height="56.1169" stroke="black" stroke-width="0.576"/>
  </g>
 </g>
 <g partID="9060380">
  <g id="board">
   <rect width="431.424" x="0.288" y="0.288" fill="none" height="56.1169" stroke="black" fill-opacity="0.5" id="boardoutline" stroke-width="0.5"/>
  </g>
 </g>
 <g partID="12282471">
  <g transform="translate(207.524,13.8036)">
   <g id="silkscreen">
    <rect width="9.07087" x="0.141732" y="0.141732" stroke-opacity="1" fill="none" height="3.9685" stroke="black" id="silkscreen" stroke-width="0.283465"/>
   </g>
  </g>
 </g>
 <g partID="12070142">
  <g transform="translate(362.253,11.9218)">
   <g transform="matrix(0,-1,1,0,0,0)">
    <g id="silkscreen">
     <line stroke="black" y1="1.44" stroke-width="0.72" x1="1.44" y2="37.44" x2="1.44"/>
     <line stroke="black" y1="37.44" stroke-width="0.72" x1="1.44" y2="37.44" x2="8.64"/>
     <line stroke="black" y1="37.44" stroke-width="0.72" x1="8.64" y2="1.44" x2="8.64"/>
     <line stroke="black" y1="1.44" stroke-width="0.72" x1="8.64" y2="1.44" x2="1.44"/>
     <line stroke="black" y1="3.96" stroke-width="0.36" x1="1.44" y2="1.44" x2="3.96"/>
     <!-- 120 -->
    </g>
   </g>
  </g>
 </g>
 <g partID="12074492">
  <g transform="translate(402.066,44.1086)">
   <g transform="matrix(0,1,-1,0,0,0)">
    <g id="silkscreen">
     <line stroke="black" y1="1.44" stroke-width="0.72" x1="1.44" y2="44.64" x2="1.44"/>
     <line stroke="black" y1="44.64" stroke-width="0.72" x1="1.44" y2="44.64" x2="8.64"/>
     <line stroke="black" y1="44.64" stroke-width="0.72" x1="8.64" y2="1.44" x2="8.64"/>
     <line stroke="black" y1="1.44" stroke-width="0.72" x1="8.64" y2="1.44" x2="1.44"/>
     <line stroke="black" y1="3.96" stroke-width="0.36" x1="1.44" y2="1.44" x2="3.96"/>
     <!-- 120 -->
    </g>
   </g>
  </g>
 </g>
 <g partID="12075032">
  <g transform="translate(77.3216,0.7632)">
   <g transform="matrix(0,1,-1,0,0,0)">
    <g id="silkscreen">
     <line stroke="black" y1="1.44" stroke-width="0.72" x1="1.44" y2="15.84" x2="1.44"/>
     <line stroke="black" y1="15.84" stroke-width="0.72" x1="1.44" y2="15.84" x2="8.64"/>
     <line stroke="black" y1="15.84" stroke-width="0.72" x1="8.64" y2="1.44" x2="8.64"/>
     <line stroke="black" y1="1.44" stroke-width="0.72" x1="8.64" y2="1.44" x2="1.44"/>
     <line stroke="black" y1="3.96" stroke-width="0.36" x1="1.44" y2="1.44" x2="3.96"/>
     <!-- 120 -->
    </g>
   </g>
  </g>
 </g>
 <g partID="12229000">
  <g transform="translate(195.246,46.6096)">
   <g id="silkscreen">
    <text x="3.6" y="6.48" fill="black" font-family="OCRA" text-anchor="middle" xmlns:xml="http://www.w3.org/XML/1998/namespace" id="label" xml:space="preserve" stroke-width="0" font-size="7.2">A</text>
   </g>
  </g>
 </g>
 <g partID="12228980">
  <g transform="translate(223.846,24.8096)">
   <g id="silkscreen">
    <text x="3.6" y="6.48" fill="black" font-family="OCRA" text-anchor="middle" xmlns:xml="http://www.w3.org/XML/1998/namespace" id="label" xml:space="preserve" stroke-width="0" font-size="7.2">B</text>
   </g>
  </g>
 </g>
 <g partID="12228960">
  <g transform="translate(389.246,29.8096)">
   <g id="silkscreen">
    <text x="3.6" y="6.48" fill="black" font-family="OCRA" text-anchor="middle" xmlns:xml="http://www.w3.org/XML/1998/namespace" id="label" xml:space="preserve" stroke-width="0" font-size="7.2">B</text>
   </g>
  </g>
 </g>
 <g partID="12228940">
  <g transform="translate(389.446,16.2096)">
   <g id="silkscreen">
    <text x="3.6" y="6.48" fill="black" font-family="OCRA" text-anchor="middle" xmlns:xml="http://www.w3.org/XML/1998/namespace" id="label" xml:space="preserve" stroke-width="0" font-size="7.2">A</text>
   </g>
  </g>
 </g>
 <g partID="12226132">
  <g transform="translate(222.48,16.848)">
   <g id="silkscreen">
    <line stroke="black" stroke-linecap="round" y1="5.05624" x1="7.43479" y2="23.4558" stroke-width="1.512" x2="169.685"/>
   </g>
  </g>
 </g>
 <g partID="12226452">
  <g transform="translate(201.744,20.304)">
   <g id="silkscreen">
    <line stroke="black" stroke-linecap="round" y1="28.6061" x1="7.43076" y2="5.08987" stroke-width="1.512" x2="193.881"/>
   </g>
  </g>
 </g>
 <g partID="12153581">
  <g transform="translate(290.383,29.8189)">
   <g transform="matrix(-1,0,0,-1,0,0)">
    <g id="silkscreen">
     <rect width="9.07087" x="0.141732" y="0.141732" stroke-opacity="1" fill="none" height="3.9685" stroke="black" id="silkscreen" stroke-width="0.283465"/>
    </g>
   </g>
  </g>
 </g>
 <g partID="12153841">
  <g transform="translate(366.042,22.047)">
   <g id="silkscreen">
    <rect width="9.07087" x="0.141732" y="0.141732" stroke-opacity="1" fill="none" height="3.9685" stroke="black" id="silkscreen" stroke-width="0.283465"/>
   </g>
  </g>
 </g>
 <g partID="12154181">
  <g transform="translate(215.032,3.70906)">
   <g transform="matrix(0,1,-1,0,0,0)">
    <g id="silkscreen">
     <rect width="9.07087" x="0.141732" y="0.141732" stroke-opacity="1" fill="none" height="3.9685" stroke="black" id="silkscreen" stroke-width="0.283465"/>
    </g>
   </g>
  </g>
 </g>
 <g partID="12154521">
  <g transform="translate(370.202,37.9936)">
   <g id="silkscreen">
    <rect width="9.07087" x="0.141732" y="0.141732" stroke-opacity="1" fill="none" height="3.9685" stroke="black" id="silkscreen" stroke-width="0.283465"/>
   </g>
  </g>
 </g>
 <g partID="12154861">
  <g transform="translate(337.456,1.40696)">
   <g id="silkscreen">
    <rect width="9.07087" x="0.141732" y="0.141732" stroke-opacity="1" fill="none" height="3.9685" stroke="black" id="silkscreen" stroke-width="0.283465"/>
   </g>
  </g>
 </g>
 <g partID="12155121">
  <g transform="translate(268.893,51.4432)">
   <g transform="matrix(0,-1,1,0,0,0)">
    <g id="silkscreen">
     <rect width="9.07087" x="0.141732" y="0.141732" stroke-opacity="1" fill="none" height="3.9685" stroke="black" id="silkscreen" stroke-width="0.283465"/>
    </g>
   </g>
  </g>
 </g>
 <g partID="12141740">
  <g transform="translate(394.655,36.5682)">
   <g transform="matrix(0,-1,1,0,0,0)">
    <g id="silkscreen">
     <text x="6.54149" y="3.9249" fill="black" font-family="OCRA" text-anchor="middle" xmlns:xml="http://www.w3.org/XML/1998/namespace" id="label" xml:space="preserve" stroke-width="0" font-size="4.36099">EGB</text>
    </g>
   </g>
  </g>
 </g>
 <g partID="12054290">
  <g transform="translate(407.366,43.0896)">
   <g transform="matrix(0,-1,1,0,0,0)">
    <g id="silkscreen">
     <text x="14.4" y="6.48" fill="black" font-family="OCRA" text-anchor="middle" xmlns:xml="http://www.w3.org/XML/1998/namespace" id="label" xml:space="preserve" stroke-width="0" font-size="7.2">2021</text>
    </g>
   </g>
  </g>
 </g>
 <g partID="12054260">
  <g transform="translate(402.255,47.3682)">
   <g transform="matrix(0,-1,1,0,0,0)">
    <g id="silkscreen">
     <text x="17.444" y="3.9249" fill="black" font-family="OCRA" text-anchor="middle" xmlns:xml="http://www.w3.org/XML/1998/namespace" id="label" xml:space="preserve" stroke-width="0" font-size="4.36099">MANGOEST</text>
    </g>
   </g>
  </g>
 </g>
 <g partID="10709540">
  <g transform="translate(2.9976,21.1086)">
   <g id="silkscreen">
    <polygon fill="black" points="0,0,0,1.61059,7.82287,1.61059,7.82287,1.65661,8.14499,1.65661,8.14499,1.70263,8.37507,1.70263,8.37507,1.74864,8.51312,1.74864,8.51312,1.79466,8.69719,1.79466,8.69719,1.84068,8.83524,1.84068,8.83524,1.8867,8.97329,1.8867,8.97329,1.93271,9.15736,1.93271,9.15736,1.97873,9.29541,1.97873,9.29541,2.02475,9.38744,2.02475,9.38744,2.07076,9.47948,2.07076,9.47948,2.11678,9.57151,2.11678,9.57151,2.1628,9.66355,2.1628,9.66355,2.20881,9.70956,2.20881,9.70956,2.25483,9.84761,2.25483,9.84761,2.30085,9.93965,2.30085,9.93965,2.34687,9.98566,2.34687,9.98566,2.39288,10.0777,2.39288,10.0777,2.48492,10.1697,2.48492,10.1697,2.53093,10.2157,2.53093,10.2157,2.57695,10.3538,2.57695,10.3538,2.62297,10.3998,2.62297,10.3998,2.66898,10.4458,2.66898,10.4458,2.715,10.4918,2.715,10.4918,2.76102,10.5379,2.76102,10.5379,2.80704,10.5839,2.80704,10.5839,2.85305,10.6759,2.85305,10.6759,2.89907,10.7219,2.89907,10.7219,2.9911,10.768,2.9911,10.768,3.03712,10.814,3.03712,10.814,3.08314,10.86,3.08314,10.86,3.12915,10.906,3.12915,10.906,3.17517,10.998,3.17517,10.998,3.2672,11.0441,3.2672,11.0441,3.31322,11.0901,3.31322,11.0901,3.40526,11.1361,3.40526,11.1361,3.45127,11.1821,3.45127,11.1821,3.49729,11.2741,3.49729,11.2741,3.58932,11.3202,3.58932,11.3202,3.72737,11.3662,3.72737,11.3662,3.77339,11.4122,3.77339,11.4122,3.81941,11.4582,3.81941,11.4582,3.91144,11.5042,3.91144,11.5042,3.95746,11.5502,3.95746,11.5502,4.04949,11.5963,4.04949,11.5963,4.09551,11.6423,4.09551,11.6423,4.27958,11.6883,4.27958,11.6883,4.37161,11.7343,4.37161,11.7343,4.41763,11.7803,4.41763,11.7803,4.55568,11.8263,4.55568,11.8263,4.69373,11.8724,4.69373,11.8724,4.73975,11.9184,4.73975,11.9184,4.8778,11.9644,4.8778,11.9644,5.19992,12.0104,5.19992,12.0104,5.33797,12.0564,5.33797,12.0564,5.61407,12.1024,5.61407,12.1024,5.89017,12.1485,5.89017,12.1485,7.0406,12.1024,7.0406,12.1024,7.3167,12.0564,7.3167,12.0564,7.54678,12.0104,7.54678,12.0104,7.73085,11.9644,7.73085,11.9644,8.00695,11.9184,8.00695,11.9184,8.145,11.8724,8.145,11.8724,8.23704,11.8263,8.23704,11.8263,8.37509,11.7803,8.37509,11.7803,8.46712,11.7343,8.46712,11.7343,8.51314,11.6883,8.51314,11.6883,8.65119,11.6423,8.65119,11.6423,8.83526,11.5963,8.83526,11.5963,8.88127,11.5502,8.88127,11.5502,8.97331,11.5042,8.97331,11.5042,9.01933,11.4582,9.01933,11.4582,9.11136,11.4122,9.11136,11.4122,9.15738,11.3662,9.15738,11.3662,9.20339,11.3202,9.20339,11.3202,9.34144,11.2741,9.34144,11.2741,9.43348,11.1821,9.43348,11.1821,9.52551,11.1361,9.52551,11.1361,9.57153,11.0901,9.57153,11.0901,9.61755,11.0441,9.61755,11.0441,9.66356,10.998,9.66356,10.998,9.7556,10.952,9.7556,10.952,9.80161,10.906,9.80161,10.906,9.84763,10.86,9.84763,10.86,9.89365,10.814,9.89365,10.814,9.93967,10.768,9.93967,10.768,9.98568,10.7219,9.98568,10.7219,10.0777,10.6299,10.0777,10.6299,10.1237,10.5839,10.1237,10.5839,10.1697,10.5379,10.1697,10.5379,10.2158,10.4918,10.2158,10.4918,10.2618,10.4458,10.2618,10.4458,10.3078,10.3998,10.3078,10.3998,10.3538,10.3078,10.3538,10.3078,10.3998,10.2618,10.3998,10.2618,10.4459,10.2157,10.4459,10.2157,10.4919,10.1237,10.4919,10.1237,10.5379,10.0777,10.5379,10.0777,10.6299,9.98566,10.6299,9.98566,10.6759,9.84761,10.6759,9.84761,10.722,9.8016,10.722,9.8016,10.768,9.75558,10.768,9.75558,10.814,9.66355,10.814,9.66355,10.86,9.57151,10.86,9.57151,10.906,9.52549,10.906,9.52549,10.952,9.47948,10.952,9.47948,10.9981,9.24939,10.9981,9.24939,11.0441,9.15736,11.0441,9.15736,11.0901,9.11134,11.0901,9.11134,11.1361,8.97329,11.1361,8.97329,11.1821,8.83524,11.1821,8.83524,11.2281,8.78922,11.2281,8.78922,11.2742,8.60516,11.2742,8.60516,11.3202,8.32906,11.3202,8.32906,11.3662,8.14499,11.3662,8.14499,11.4122,7.86889,11.4122,7.86889,11.4582,7.3627,11.4582,7.3627,11.5042,14.1732,11.5042,14.1732,0" stroke="none" stroke-width="0"/>
    <polygon fill="black" points="0,1.61059,0,11.5042,6.94855,11.5042,6.94855,11.4582,6.44236,11.4582,6.44236,11.4122,6.21228,11.4122,6.21228,11.3662,6.02821,11.3662,6.02821,11.3202,5.70609,11.3202,5.70609,11.2742,5.61406,11.2742,5.61406,11.2281,5.52203,11.2281,5.52203,11.1821,5.38398,11.1821,5.38398,11.1361,5.29194,11.1361,5.29194,11.0901,5.19991,11.0901,5.19991,11.0441,5.10787,11.0441,5.10787,10.9981,4.96982,10.9981,4.96982,10.952,4.87779,10.952,4.87779,10.906,4.78576,10.906,4.78576,10.86,4.73974,10.86,4.73974,10.814,4.69372,10.814,4.69372,10.768,4.60169,10.768,4.60169,10.722,4.55567,10.722,4.55567,10.6759,4.46364,10.6759,4.46364,10.6299,4.41762,10.6299,4.41762,10.5839,4.32559,10.5839,4.32559,10.5379,4.27957,10.5379,4.27957,10.4919,4.23355,10.4919,4.23355,10.4459,4.14152,10.4459,4.14152,10.3538,4.04949,10.3538,4.04949,10.3078,4.00347,10.3078,4.00347,10.2618,3.91144,10.2618,3.91144,10.2158,3.86542,10.2158,3.86542,10.1697,3.8194,10.1697,3.8194,10.0777,3.72737,10.0777,3.72737,10.0317,3.68135,10.0317,3.68135,9.98568,3.63533,9.98568,3.63533,9.93967,3.58932,9.93967,3.58932,9.84763,3.5433,9.84763,3.5433,9.80161,3.49728,9.80161,3.49728,9.7556,3.45127,9.7556,3.45127,9.70958,3.40525,9.70958,3.40525,9.66356,3.35923,9.66356,3.35923,9.57153,3.31322,9.57153,3.31322,9.52551,3.2672,9.52551,3.2672,9.4795,3.22118,9.4795,3.22118,9.38746,3.17516,9.38746,3.17516,9.29543,3.12915,9.29543,3.12915,9.24941,3.08313,9.24941,3.08313,9.15738,3.03711,9.15738,3.03711,9.11136,2.9911,9.11136,2.9911,9.06534,2.94508,9.06534,2.94508,8.97331,2.89906,8.97331,2.89906,8.83526,2.85305,8.83526,2.85305,8.78924,2.80703,8.78924,2.80703,8.69721,2.76101,8.69721,2.76101,8.60517,2.715,8.60517,2.715,8.51314,2.66898,8.51314,2.66898,8.46712,2.62296,8.46712,2.62296,8.32907,2.57695,8.32907,2.57695,8.145,2.53093,8.145,2.53093,8.00695,2.48491,8.00695,2.48491,7.8689,2.43889,7.8689,2.43889,7.77687,2.39288,7.77687,2.39288,7.5928,2.34686,7.5928,2.34686,7.45475,2.30084,7.45475,2.30084,7.27068,2.25483,7.27068,2.25483,6.48839,2.20881,6.48839,2.20881,6.16627,2.25483,6.16627,2.25483,5.38399,2.30084,5.38399,2.30084,5.19992,2.34686,5.19992,2.34686,5.06187,2.39288,5.06187,2.39288,4.92382,2.43889,4.92382,2.43889,4.78576,2.48491,4.78576,2.48491,4.69373,2.53093,4.69373,2.53093,4.55568,2.57695,4.55568,2.57695,4.37161,2.62296,4.37161,2.62296,4.27958,2.66898,4.27958,2.66898,4.18754,2.715,4.18754,2.715,4.09551,2.76101,4.09551,2.76101,4.04949,2.80703,4.04949,2.80703,3.95746,2.85305,3.95746,2.85305,3.86543,2.89906,3.86543,2.89906,3.77339,2.94508,3.77339,2.94508,3.72737,2.9911,3.72737,2.9911,3.63534,3.03711,3.63534,3.03711,3.58932,3.08313,3.58932,3.08313,3.49729,3.17516,3.49729,3.17516,3.40526,3.22118,3.40526,3.22118,3.31322,3.2672,3.31322,3.2672,3.2672,3.31322,3.2672,3.31322,3.17517,3.40525,3.17517,3.40525,3.12915,3.45127,3.12915,3.45127,3.08314,3.49728,3.08314,3.49728,2.9911,3.5433,2.9911,3.5433,2.94509,3.58932,2.94509,3.58932,2.89907,3.63533,2.89907,3.63533,2.85305,3.72737,2.85305,3.72737,2.80704,3.77338,2.80704,3.77338,2.76102,3.8194,2.76102,3.8194,2.66898,3.91144,2.66898,3.91144,2.62297,3.95745,2.62297,3.95745,2.57695,4.0955,2.57695,4.0955,2.53093,4.14152,2.53093,4.14152,2.48492,4.18754,2.48492,4.18754,2.4389,4.23355,2.4389,4.23355,2.39288,4.32559,2.39288,4.32559,2.34687,4.41762,2.34687,4.41762,2.30085,4.46364,2.30085,4.46364,2.25483,4.60169,2.25483,4.60169,2.20881,4.69372,2.20881,4.69372,2.1628,4.73974,2.1628,4.73974,2.11678,4.87779,2.11678,4.87779,2.07076,4.96982,2.07076,4.96982,2.02475,5.06186,2.02475,5.06186,1.97873,5.15389,1.97873,5.15389,1.93271,5.38398,1.93271,5.38398,1.8867,5.56804,1.8867,5.56804,1.84068,5.70609,1.84068,5.70609,1.79466,5.89016,1.79466,5.89016,1.74864,6.07423,1.74864,6.07423,1.70263,6.30431,1.70263,6.30431,1.65661,6.67245,1.65661,6.67245,1.61059" stroke="none" stroke-width="0"/>
    <polygon fill="black" points="0,11.5042,0,11.5503,14.1732,11.5503,14.1732,11.5042" stroke="none" stroke-width="0"/>
    <polygon fill="black" points="0,11.5042,0,11.5503,14.1732,11.5503,14.1732,11.5042" stroke="none" stroke-width="0"/>
    <polygon fill="black" points="0,11.5503,0,12.9308,14.1732,12.9308,14.1732,11.5503" stroke="none" stroke-width="0"/>
    <polygon fill="black" points="6.67245,2.57695,6.67245,2.62297,6.39635,2.62297,6.39635,2.66898,6.35033,2.66898,6.35033,2.715,6.2583,2.715,6.2583,2.76102,6.16626,2.76102,6.16626,2.80704,6.12025,2.80704,6.12025,2.85305,6.07423,2.85305,6.07423,2.89907,5.98219,2.89907,5.98219,2.94509,5.93618,2.94509,5.93618,2.9911,5.89016,2.9911,5.89016,3.03712,5.84414,3.03712,5.84414,3.08314,5.79813,3.08314,5.79813,3.12915,5.75211,3.12915,5.75211,3.17517,6.67245,3.17517,6.67245,3.22119,6.85652,3.22119,6.85652,3.2672,6.99457,3.2672,6.99457,3.31322,7.0866,3.31322,7.0866,3.35924,7.17863,3.35924,7.17863,3.40526,7.27067,3.40526,7.27067,3.45127,7.31668,3.45127,7.31668,3.63534,7.27067,3.63534,7.27067,3.86543,8.00694,3.86543,8.00694,3.77339,7.96092,3.77339,7.96092,3.68136,7.9149,3.68136,7.9149,3.58932,7.86889,3.58932,7.86889,3.40526,7.82287,3.40526,7.82287,3.31322,7.77685,3.31322,7.77685,3.22119,7.73084,3.22119,7.73084,3.12915,7.68482,3.12915,7.68482,3.03712,7.6388,3.03712,7.6388,2.9911,7.59279,2.9911,7.59279,2.89907,7.54677,2.89907,7.54677,2.80704,7.50075,2.80704,7.50075,2.76102,7.45474,2.76102,7.45474,2.715,7.3627,2.715,7.3627,2.66898,7.31668,2.66898,7.31668,2.62297,7.04058,2.62297,7.04058,2.57695" stroke="none" stroke-width="0"/>
    <polygon fill="black" points="5.75211,3.17517,5.75211,3.22119,5.66008,3.22119,5.66008,3.2672,5.61406,3.2672,5.61406,3.31322,5.56804,3.31322,5.56804,3.40526,5.52203,3.40526,5.52203,3.45127,5.47601,3.45127,5.47601,3.49729,5.42999,3.49729,5.42999,3.58932,5.38398,3.58932,5.38398,3.63534,5.33796,3.63534,5.33796,3.72737,5.29194,3.72737,5.29194,3.77339,5.24592,3.77339,5.24592,3.86543,5.15389,3.86543,5.15389,3.95746,5.10787,3.95746,5.10787,4.09551,5.06186,4.09551,5.06186,4.14153,5.01584,4.14153,5.01584,4.18754,4.96982,4.18754,4.96982,4.27958,4.92381,4.27958,4.92381,4.37161,4.87779,4.37161,4.87779,4.41763,4.83177,4.41763,4.83177,4.46365,4.78576,4.46365,4.78576,4.64771,4.73974,4.64771,4.73974,4.73975,4.69372,4.73975,4.69372,4.78576,4.64771,4.78576,4.64771,4.83178,4.60169,4.83178,4.60169,4.92382,4.55567,4.92382,4.55567,5.01585,4.50965,5.01585,4.50965,5.10788,4.46364,5.10788,4.46364,5.19992,4.41762,5.19992,4.41762,5.29195,4.3716,5.29195,4.3716,5.38399,4.32559,5.38399,4.32559,5.43,4.27957,5.43,4.27957,5.47602,4.23355,5.47602,4.23355,5.56805,4.18754,5.56805,4.18754,5.7061,4.14152,5.7061,4.14152,5.75212,4.0955,5.75212,4.0955,5.84415,4.04949,5.84415,4.04949,5.93619,4.00347,5.93619,4.00347,5.98221,3.95745,5.98221,3.95745,6.02822,3.91144,6.02822,3.91144,6.07424,3.86542,6.07424,3.86542,6.21229,3.8194,6.21229,3.8194,6.30432,3.77338,6.30432,3.77338,6.35034,3.68135,6.35034,3.68135,6.39636,3.63533,6.39636,3.63533,6.48839,3.58932,6.48839,3.58932,6.53441,3.5433,6.53441,3.5433,6.62644,3.45127,6.62644,3.45127,6.67246,3.35923,6.67246,3.35923,6.71848,3.31322,6.71848,3.31322,6.76449,3.2672,6.76449,3.2672,7.77687,3.31322,7.77687,3.31322,7.8689,3.35923,7.8689,3.35923,7.91492,4.00347,7.91492,4.00347,7.82288,3.95745,7.82288,3.95745,7.68483,3.91144,7.68483,3.91144,7.63882,3.86542,7.63882,3.86542,7.5928,3.77338,7.5928,3.77338,7.54678,3.72737,7.54678,3.72737,7.50077,3.77338,7.50077,3.77338,7.40873,3.8194,7.40873,3.8194,7.22466,3.86542,7.22466,3.86542,7.13263,3.91144,7.13263,3.91144,7.0406,3.95745,7.0406,3.95745,6.94856,4.00347,6.94856,4.00347,6.90255,4.04949,6.90255,4.04949,6.81051,4.0955,6.81051,4.0955,6.76449,4.14152,6.76449,4.14152,6.58043,4.18754,6.58043,4.18754,6.53441,4.23355,6.53441,4.23355,6.44238,4.27957,6.44238,4.27957,6.39636,4.32559,6.39636,4.32559,6.30432,4.3716,6.30432,4.3716,6.25831,4.41762,6.25831,4.41762,6.21229,4.46364,6.21229,4.46364,6.07424,4.50965,6.07424,4.50965,5.98221,4.55567,5.98221,4.55567,5.93619,4.60169,5.93619,4.60169,5.89017,4.64771,5.89017,4.64771,5.79814,4.69372,5.79814,4.69372,5.75212,4.73974,5.75212,4.73974,5.66009,4.78576,5.66009,4.78576,5.56805,4.83177,5.56805,4.83177,5.52204,4.87779,5.52204,4.87779,5.43,4.92381,5.43,4.92381,5.38399,4.96982,5.38399,4.96982,5.33797,5.01584,5.33797,5.01584,5.29195,5.06186,5.29195,5.06186,5.1539,5.10787,5.1539,5.10787,5.10788,5.15389,5.10788,5.15389,5.06187,5.19991,5.06187,5.19991,5.01585,5.24592,5.01585,5.24592,4.96983,5.29194,4.96983,5.29194,4.8778,5.33796,4.8778,5.33796,4.83178,5.38398,4.83178,5.38398,4.73975,5.42999,4.73975,5.42999,4.69373,5.47601,4.69373,5.47601,4.64771,5.52203,4.64771,5.52203,4.55568,5.56804,4.55568,5.56804,4.50966,5.61406,4.50966,5.61406,4.41763,5.70609,4.41763,5.70609,4.27958,5.75211,4.27958,5.75211,4.23356,5.79813,4.23356,5.79813,4.18754,5.84414,4.18754,5.84414,4.09551,5.93618,4.09551,5.93618,4.04949,5.98219,4.04949,5.98219,3.91144,6.02821,3.91144,6.02821,3.81941,6.12025,3.81941,6.12025,3.77339,6.16626,3.77339,6.16626,3.68136,6.21228,3.68136,6.21228,3.63534,6.2583,3.63534,6.2583,3.54331,6.30431,3.54331,6.30431,3.45127,6.35033,3.45127,6.35033,3.40526,6.39635,3.40526,6.39635,3.35924,6.44236,3.35924,6.44236,3.2672,6.48838,3.2672,6.48838,3.22119,6.5344,3.22119,6.5344,3.17517" stroke="none" stroke-width="0"/>
    <polygon fill="black" points="8.32906,3.72737,8.32906,3.77339,8.23702,3.77339,8.23702,3.81941,8.14499,3.81941,8.14499,3.86543,8.88126,3.86543,8.88126,3.81941,8.69719,3.81941,8.69719,3.77339,8.46711,3.77339,8.46711,3.72737" stroke="none" stroke-width="0"/>
    <polygon fill="black" points="7.27067,3.86543,7.27067,3.91144,9.20338,3.91144,9.20338,3.86543" stroke="none" stroke-width="0"/>
    <polygon fill="black" points="7.27067,3.86543,7.27067,3.91144,9.20338,3.91144,9.20338,3.86543" stroke="none" stroke-width="0"/>
    <polygon fill="black" points="7.27067,3.91144,7.27067,4.00348,7.22465,4.00348,7.22465,4.09551,7.17863,4.09551,7.17863,4.18754,7.13262,4.18754,7.13262,4.27958,7.0866,4.27958,7.0866,4.37161,8.65117,4.37161,8.65117,4.41763,8.97329,4.41763,8.97329,5.01585,9.70956,5.01585,9.70956,4.8778,9.66355,4.8778,9.66355,4.73975,9.61753,4.73975,9.61753,4.6017,9.57151,4.6017,9.57151,4.46365,9.52549,4.46365,9.52549,4.41763,9.47948,4.41763,9.47948,4.32559,9.43346,4.32559,9.43346,4.14153,9.34143,4.14153,9.34143,4.04949,9.29541,4.04949,9.29541,4.00348,9.24939,4.00348,9.24939,3.91144" stroke="none" stroke-width="0"/>
    <polygon fill="black" points="7.04058,4.37161,7.04058,4.46365,6.99457,4.46365,6.99457,4.6017,6.94855,4.6017,6.94855,4.69373,6.90253,4.69373,6.90253,4.73975,6.85652,4.73975,6.85652,4.78576,6.8105,4.78576,6.8105,4.83178,6.76448,4.83178,6.76448,4.92382,6.71846,4.92382,6.71846,4.96983,6.67245,4.96983,6.67245,5.10788,6.58041,5.10788,6.58041,5.19992,6.5344,5.19992,6.5344,5.24593,6.48838,5.24593,6.48838,5.29195,6.44236,5.29195,6.44236,5.38399,6.35033,5.38399,6.35033,5.52204,6.30431,5.52204,6.30431,5.56805,6.2583,5.56805,6.2583,5.61407,6.21228,5.61407,6.21228,5.66009,6.16626,5.66009,6.16626,5.7061,6.12025,5.7061,6.12025,5.75212,6.07423,5.75212,6.07423,5.84415,6.02821,5.84415,6.02821,5.93619,5.98219,5.93619,5.98219,6.02822,5.89016,6.02822,5.89016,6.12026,5.84414,6.12026,5.84414,6.21229,5.79813,6.21229,5.79813,6.30432,5.75211,6.30432,5.75211,6.39636,5.70609,6.39636,5.70609,6.48839,5.66008,6.48839,5.66008,6.58043,5.61406,6.58043,5.61406,6.62644,5.56804,6.62644,5.56804,6.71848,5.52203,6.71848,5.52203,6.76449,5.47601,6.76449,5.47601,6.85653,5.42999,6.85653,5.42999,6.94856,5.38398,6.94856,5.38398,7.0406,5.33796,7.0406,5.33796,7.13263,5.29194,7.13263,5.29194,7.17865,5.24592,7.17865,5.24592,7.22466,5.19991,7.22466,5.19991,7.27068,5.15389,7.27068,5.15389,7.3167,5.10787,7.3167,5.10787,7.40873,5.06186,7.40873,5.06186,7.50077,5.01584,7.50077,5.01584,7.54678,4.92381,7.54678,4.92381,7.5928,4.83177,7.5928,4.83177,7.63882,4.78576,7.63882,4.78576,7.68483,4.73974,7.68483,4.73974,7.73085,4.69372,7.73085,4.69372,7.77687,5.70609,7.77687,5.70609,7.82288,5.75211,7.82288,5.75211,7.91492,6.39635,7.91492,6.39635,7.8689,6.35033,7.8689,6.35033,7.82288,6.30431,7.82288,6.30431,7.0406,6.35033,7.0406,6.35033,6.90255,6.39635,6.90255,6.39635,6.85653,6.44236,6.85653,6.44236,6.81051,6.48838,6.81051,6.48838,6.71848,6.5344,6.71848,6.5344,6.62644,6.58041,6.62644,6.58041,6.58043,6.62643,6.58043,6.62643,6.48839,6.67245,6.48839,6.67245,6.44238,6.71846,6.44238,6.71846,6.39636,6.76448,6.39636,6.76448,6.35034,6.8105,6.35034,6.8105,6.30432,6.85652,6.30432,6.85652,6.25831,6.90253,6.25831,6.90253,6.21229,6.94855,6.21229,6.94855,6.12026,6.99457,6.12026,6.99457,6.02822,7.04058,6.02822,7.04058,5.98221,7.13262,5.98221,7.13262,5.93619,7.17863,5.93619,7.17863,5.84415,7.22465,5.84415,7.22465,5.75212,7.27067,5.75212,7.27067,5.66009,7.3627,5.66009,7.3627,5.56805,7.40872,5.56805,7.40872,5.47602,7.45474,5.47602,7.45474,5.43,7.50075,5.43,7.50075,5.33797,7.54677,5.33797,7.54677,5.19992,7.59279,5.19992,7.59279,5.10788,7.6388,5.10788,7.6388,5.06187,7.68482,5.06187,7.68482,5.01585,7.73084,5.01585,7.73084,4.92382,7.77685,4.92382,7.77685,4.8778,7.82287,4.8778,7.82287,4.78576,7.86889,4.78576,7.86889,4.73975,7.9149,4.73975,7.9149,4.69373,7.96092,4.69373,7.96092,4.64771,8.00694,4.64771,8.00694,4.6017,8.05295,4.6017,8.05295,4.55568,8.09897,4.55568,8.09897,4.50966,8.14499,4.50966,8.14499,4.46365,8.19101,4.46365,8.19101,4.41763,8.46711,4.41763,8.46711,4.37161" stroke="none" stroke-width="0"/>
    <polygon fill="black" points="10.0777,4.8778,10.0777,4.92382,9.89363,4.92382,9.89363,4.96983,9.75558,4.96983,9.75558,5.01585,10.4918,5.01585,10.4918,4.96983,10.3538,4.96983,10.3538,4.92382,10.1237,4.92382,10.1237,4.8778" stroke="none" stroke-width="0"/>
    <polygon fill="black" points="8.92728,5.01585,8.92728,5.06187,10.5839,5.06187,10.5839,5.01585" stroke="none" stroke-width="0"/>
    <polygon fill="black" points="8.92728,5.01585,8.92728,5.06187,10.5839,5.06187,10.5839,5.01585" stroke="none" stroke-width="0"/>
    <polygon fill="black" points="8.92728,5.06187,8.92728,5.1539,8.88126,5.1539,8.88126,5.29195,8.83524,5.29195,8.83524,5.47602,10.4918,5.47602,10.4918,5.66009,10.5379,5.66009,10.5379,5.7061,10.5839,5.7061,10.5839,5.75212,10.6299,5.75212,10.6299,5.79814,10.6759,5.79814,10.6759,5.84415,10.7219,5.84415,10.7219,6.02822,10.6759,6.02822,10.6759,6.12026,10.6299,6.12026,10.6299,6.21229,10.5839,6.21229,10.5839,6.30432,10.5379,6.30432,10.5379,6.39636,10.4918,6.39636,10.4918,6.48839,10.4458,6.48839,10.4458,6.58043,10.3998,6.58043,10.3998,6.76449,10.3538,6.76449,10.3538,6.85653,10.3078,6.85653,10.3078,6.94856,10.2618,6.94856,10.2618,6.99458,10.2157,6.99458,10.2157,7.08661,10.1697,7.08661,10.1697,7.17865,10.1237,7.17865,10.1237,7.22466,10.0777,7.22466,10.0777,7.3167,10.0317,7.3167,10.0317,7.36271,9.98566,7.36271,9.98566,7.45475,9.93965,7.45475,9.93965,7.50077,9.89363,7.50077,9.89363,7.54678,9.84761,7.54678,9.84761,7.5928,9.75558,7.5928,9.75558,7.63882,9.70956,7.63882,9.70956,7.68483,9.66355,7.68483,9.66355,7.73085,9.57151,7.73085,9.57151,7.77687,9.47948,7.77687,9.47948,7.82288,9.43346,7.82288,9.43346,7.8689,9.11134,7.8689,9.11134,7.91492,10.2618,7.91492,10.2618,7.82288,10.3538,7.82288,10.3538,7.73085,10.3998,7.73085,10.3998,7.68483,10.4458,7.68483,10.4458,7.5928,10.4918,7.5928,10.4918,7.54678,10.5839,7.54678,10.5839,7.50077,10.6299,7.50077,10.6299,7.40873,10.6759,7.40873,10.6759,7.3167,10.7219,7.3167,10.7219,7.22466,10.814,7.22466,10.814,7.13263,10.86,7.13263,10.86,7.08661,10.906,7.08661,10.906,6.99458,10.952,6.99458,10.952,6.85653,10.998,6.85653,10.998,6.76449,11.0441,6.76449,11.0441,6.67246,11.0901,6.67246,11.0901,6.58043,11.1361,6.58043,11.1361,6.39636,11.1821,6.39636,11.1821,6.25831,11.2281,6.25831,11.2281,5.47602,11.1361,5.47602,11.1361,5.43,11.0901,5.43,11.0901,5.38399,10.998,5.38399,10.998,5.33797,10.952,5.33797,10.952,5.24593,10.86,5.24593,10.86,5.19992,10.814,5.19992,10.814,5.1539,10.768,5.1539,10.768,5.10788,10.6299,5.10788,10.6299,5.06187" stroke="none" stroke-width="0"/>
    <polygon fill="black" points="8.83524,5.47602,8.83524,5.52204,8.78922,5.52204,8.78922,5.61407,8.74321,5.61407,8.74321,5.7061,8.69719,5.7061,8.69719,5.75212,8.65117,5.75212,8.65117,5.84415,8.60516,5.84415,8.60516,5.89017,8.55914,5.89017,8.55914,5.98221,8.51312,5.98221,8.51312,6.07424,8.46711,6.07424,8.46711,6.16627,8.42109,6.16627,8.42109,6.21229,8.37507,6.21229,8.37507,6.30432,8.32906,6.30432,8.32906,6.35034,8.28304,6.35034,8.28304,6.39636,8.23702,6.39636,8.23702,6.48839,8.19101,6.48839,8.19101,6.58043,8.14499,6.58043,8.14499,6.62644,8.09897,6.62644,8.09897,6.67246,8.05295,6.67246,8.05295,6.71848,8.00694,6.71848,8.00694,6.81051,7.96092,6.81051,7.96092,6.90255,7.9149,6.90255,7.9149,6.99458,7.86889,6.99458,7.86889,7.08661,7.82287,7.08661,7.82287,7.13263,7.77685,7.13263,7.77685,7.22466,7.73084,7.22466,7.73084,7.27068,7.6388,7.27068,7.6388,7.36271,7.59279,7.36271,7.59279,7.45475,7.54677,7.45475,7.54677,7.50077,7.50075,7.50077,7.50075,7.54678,7.45474,7.54678,7.45474,7.5928,7.3627,7.5928,7.3627,7.63882,7.31668,7.63882,7.31668,7.68483,7.27067,7.68483,7.27067,7.77687,8.09897,7.77687,8.09897,7.82288,8.14499,7.82288,8.14499,7.8689,8.19101,7.8689,8.19101,7.91492,8.78922,7.91492,8.78922,7.77687,8.74321,7.77687,8.74321,7.5928,8.69719,7.5928,8.69719,7.22466,8.74321,7.22466,8.74321,7.0406,8.78922,7.0406,8.78922,6.85653,8.83524,6.85653,8.83524,6.81051,8.88126,6.81051,8.88126,6.71848,8.92728,6.71848,8.92728,6.67246,8.97329,6.67246,8.97329,6.58043,9.06533,6.58043,9.06533,6.48839,9.11134,6.48839,9.11134,6.39636,9.15736,6.39636,9.15736,6.35034,9.20338,6.35034,9.20338,6.30432,9.24939,6.30432,9.24939,6.25831,9.29541,6.25831,9.29541,6.21229,9.34143,6.21229,9.34143,6.12026,9.38744,6.12026,9.38744,6.07424,9.43346,6.07424,9.43346,5.98221,9.47948,5.98221,9.47948,5.93619,9.52549,5.93619,9.52549,5.84415,9.57151,5.84415,9.57151,5.75212,9.61753,5.75212,9.61753,5.66009,9.66355,5.66009,9.66355,5.56805,9.70956,5.56805,9.70956,5.47602" stroke="none" stroke-width="0"/>
    <polygon fill="black" points="4.60169,7.77687,4.60169,7.82288,4.50965,7.82288,4.50965,7.8689,4.23355,7.8689,4.23355,7.91492,5.38398,7.91492,5.38398,7.82288,5.56804,7.82288,5.56804,7.77687" stroke="none" stroke-width="0"/>
    <polygon fill="black" points="7.17863,7.77687,7.17863,7.82288,7.0866,7.82288,7.0866,7.8689,6.90253,7.8689,6.90253,7.91492,7.9149,7.91492,7.9149,7.8689,7.96092,7.8689,7.96092,7.82288,8.00694,7.82288,8.00694,7.77687" stroke="none" stroke-width="0"/>
    <polygon fill="black" points="3.35923,7.91492,3.35923,7.96094,5.33796,7.96094,5.33796,7.91492" stroke="none" stroke-width="0"/>
    <polygon fill="black" points="3.35923,7.91492,3.35923,7.96094,5.33796,7.96094,5.33796,7.91492" stroke="none" stroke-width="0"/>
    <polygon fill="black" points="5.75211,7.91492,5.75211,7.96094,7.9149,7.96094,7.9149,7.91492" stroke="none" stroke-width="0"/>
    <polygon fill="black" points="5.75211,7.91492,5.75211,7.96094,7.9149,7.96094,7.9149,7.91492" stroke="none" stroke-width="0"/>
    <polygon fill="black" points="8.19101,7.91492,8.19101,7.96094,10.2157,7.96094,10.2157,7.91492" stroke="none" stroke-width="0"/>
    <polygon fill="black" points="8.19101,7.91492,8.19101,7.96094,10.2157,7.96094,10.2157,7.91492" stroke="none" stroke-width="0"/>
    <polygon fill="black" points="3.40525,7.96094,3.40525,8.05297,3.45127,8.05297,3.45127,8.145,3.5433,8.145,3.5433,8.23704,3.58932,8.23704,3.58932,8.28305,3.63533,8.28305,3.63533,8.32907,3.68135,8.32907,3.68135,8.37509,3.77338,8.37509,3.77338,8.42111,3.8194,8.42111,3.8194,8.46712,4.04949,8.46712,4.04949,8.51314,4.73974,8.51314,4.73974,8.46712,4.92381,8.46712,4.92381,8.42111,4.96982,8.42111,4.96982,8.37509,5.01584,8.37509,5.01584,8.32907,5.06186,8.32907,5.06186,8.23704,5.10787,8.23704,5.10787,8.145,5.19991,8.145,5.19991,8.09899,5.24592,8.09899,5.24592,8.00695,5.29194,8.00695,5.29194,7.96094" stroke="none" stroke-width="0"/>
    <polygon fill="black" points="5.79813,7.96094,5.79813,8.00695,5.84414,8.00695,5.84414,8.09899,5.89016,8.09899,5.89016,8.145,5.98219,8.145,5.98219,8.19102,6.02821,8.19102,6.02821,8.28305,6.07423,8.28305,6.07423,8.32907,6.12025,8.32907,6.12025,8.42111,6.16626,8.42111,6.16626,8.51314,6.39635,8.51314,6.39635,8.55916,6.90253,8.55916,6.90253,8.51314,7.0866,8.51314,7.0866,8.46712,7.31668,8.46712,7.31668,8.42111,7.40872,8.42111,7.40872,8.37509,7.50075,8.37509,7.50075,8.32907,7.54677,8.32907,7.54677,8.28305,7.59279,8.28305,7.59279,8.23704,7.6388,8.23704,7.6388,8.19102,7.68482,8.19102,7.68482,8.145,7.77685,8.145,7.77685,8.09899,7.82287,8.09899,7.82287,8.05297,7.86889,8.05297,7.86889,7.96094" stroke="none" stroke-width="0"/>
    <polygon fill="black" points="8.23702,7.96094,8.23702,8.05297,8.28304,8.05297,8.28304,8.09899,8.32906,8.09899,8.32906,8.145,8.42109,8.145,8.42109,8.19102,8.46711,8.19102,8.46711,8.23704,8.51312,8.23704,8.51312,8.37509,8.55914,8.37509,8.55914,8.51314,9.8016,8.51314,9.8016,8.46712,9.84761,8.46712,9.84761,8.42111,9.89363,8.42111,9.89363,8.37509,9.93965,8.37509,9.93965,8.28305,9.98566,8.28305,9.98566,8.23704,10.0317,8.23704,10.0317,8.145,10.0777,8.145,10.0777,8.05297,10.1237,8.05297,10.1237,8.00695,10.1697,8.00695,10.1697,7.96094" stroke="none" stroke-width="0"/>
   </g>
  </g>
 </g>
 <g partID="9060382">
  <g id="silkscreen">
   <rect width="431.424" x="0.288" y="0.288" fill="none" height="56.1169" stroke="black" stroke-width="0.576"/>
  </g>
 </g>
 <g id="partLabel" partID="12282470">
  <g transform="translate(195.811,10.0703)">
   <g fill="#000000" font-family="'OCRA'" stroke="none" font-style="normal" fill-opacity="1" font-weight="normal" id="silkscreenLabel" font-size="5">
    <text x="0" y="3.75">R11</text>
   </g>
  </g>
 </g>
 <g id="partLabel" partID="12153580">
  <g transform="translate(298.329,29.8189)">
   <g transform="matrix(-1,0,0,-1,0,0)">
    <g fill="#000000" font-family="'OCRA'" stroke="none" font-style="normal" fill-opacity="1" font-weight="normal" id="silkscreenLabel" font-size="5">
     <text x="0" y="3.75">R8</text>
    </g>
   </g>
  </g>
 </g>
 <g id="partLabel" partID="12153840">
  <g transform="translate(365.234,34.8558)">
   <g transform="matrix(0,-1,1,0,0,0)">
    <g fill="#000000" font-family="'OCRA'" stroke="none" font-style="normal" fill-opacity="1" font-weight="normal" id="silkscreenLabel" font-size="5">
     <text x="0" y="3.75">R4</text>
    </g>
   </g>
  </g>
 </g>
 <g id="partLabel" partID="12154180">
  <g transform="translate(217.583,0.66024)">
   <g fill="#000000" font-family="'OCRA'" stroke="none" font-style="normal" fill-opacity="1" font-weight="normal" id="silkscreenLabel" font-size="5">
    <text x="0" y="3.75">R5</text>
   </g>
  </g>
 </g>
 <g id="partLabel" partID="12154520">
  <g transform="translate(371.237,31.5936)">
   <g fill="#000000" font-family="'OCRA'" stroke="none" font-style="normal" fill-opacity="1" font-weight="normal" id="silkscreenLabel" font-size="5">
    <text x="0" y="3.75">R9</text>
   </g>
  </g>
 </g>
 <g id="partLabel" partID="12154860">
  <g transform="translate(327.85,6.04696)">
   <g fill="#000000" font-family="'OCRA'" stroke="none" font-style="normal" fill-opacity="1" font-weight="normal" id="silkscreenLabel" font-size="5">
    <text x="0" y="3.75">R7</text>
   </g>
  </g>
 </g>
 <g id="partLabel" partID="12155120">
  <g transform="translate(266.342,54.492)">
   <g transform="matrix(-1,0,0,-1,0,0)">
    <g fill="#000000" font-family="'OCRA'" stroke="none" font-style="normal" fill-opacity="1" font-weight="normal" id="silkscreenLabel" font-size="5">
     <text x="0" y="3.75">R3</text>
    </g>
   </g>
  </g>
 </g>
 <g id="partLabel" partID="12070140">
  <g transform="translate(360.653,10.2418)">
   <g transform="matrix(-1,0,0,-1,0,0)">
    <g fill="#000000" font-family="'OCRA'" stroke="none" font-style="normal" fill-opacity="1" font-weight="normal" id="silkscreenLabel" font-size="5">
     <text x="0" y="3.75">J1</text>
    </g>
   </g>
  </g>
 </g>
 <g id="partLabel" partID="12074490">
  <g transform="translate(404.466,47.3086)">
   <g fill="#000000" font-family="'OCRA'" stroke="none" font-style="normal" fill-opacity="1" font-weight="normal" id="silkscreenLabel" font-size="5">
    <text x="0" y="3.75">J2</text>
   </g>
  </g>
 </g>
 <g id="partLabel" partID="12075030">
  <g transform="translate(83.0216,2.3432)">
   <g transform="matrix(0,1,-1,0,0,0)">
    <g fill="#000000" font-family="'OCRA'" stroke="none" font-style="normal" fill-opacity="1" font-weight="normal" id="silkscreenLabel" font-size="5">
     <text x="0" y="3.75">J3</text>
    </g>
   </g>
  </g>
 </g>
 <g partID="12282470">
  <g transform="translate(207.524,13.8036)">
   <g id="copper1">
    <rect width="3.40157" x="0.566929" y="0.566929" fill="white" height="3.11811" stroke="white" fill-opacity="1" id="connector0pad" stroke-width="0.72"/>
    <rect width="3.40157" x="5.38583" y="0.566929" fill="white" height="3.11811" stroke="white" fill-opacity="1" id="connector1pad" stroke-width="0.72"/>
   </g>
  </g>
 </g>
 <g partID="12070141">
  <g transform="translate(362.253,11.9218)">
   <g transform="matrix(0,-1,1,0,0,0)">
    <g id="copper1">
     <g id="copper0">
      <circle fill="white" cx="5.04" cy="5.04" stroke="white" id="connector0pin" r="2.088" stroke-width="2.16"/>
      <circle fill="white" cx="5.04" cy="12.24" stroke="white" id="connector1pin" r="2.088" stroke-width="2.16"/>
      <circle fill="white" cx="5.04" cy="19.44" stroke="white" id="connector2pin" r="2.088" stroke-width="2.16"/>
      <circle fill="white" cx="5.04" cy="26.64" stroke="white" id="connector3pin" r="2.088" stroke-width="2.16"/>
      <circle fill="white" cx="5.04" cy="33.84" stroke="white" id="connector4pin" r="2.088" stroke-width="2.16"/>
     </g>
    </g>
   </g>
  </g>
 </g>
 <g partID="12074491">
  <g transform="translate(402.066,44.1086)">
   <g transform="matrix(0,1,-1,0,0,0)">
    <g id="copper1">
     <g id="copper0">
      <circle fill="white" cx="5.04" cy="5.04" stroke="white" id="connector0pin" r="2.088" stroke-width="2.16"/>
      <circle fill="white" cx="5.04" cy="12.24" stroke="white" id="connector1pin" r="2.088" stroke-width="2.16"/>
      <circle fill="white" cx="5.04" cy="19.44" stroke="white" id="connector2pin" r="2.088" stroke-width="2.16"/>
      <circle fill="white" cx="5.04" cy="26.64" stroke="white" id="connector3pin" r="2.088" stroke-width="2.16"/>
      <circle fill="white" cx="5.04" cy="33.84" stroke="white" id="connector4pin" r="2.088" stroke-width="2.16"/>
      <circle fill="white" cx="5.04" cy="41.04" stroke="white" id="connector5pin" r="2.088" stroke-width="2.16"/>
     </g>
    </g>
   </g>
  </g>
 </g>
 <g partID="12075031">
  <g transform="translate(77.3216,0.7632)">
   <g transform="matrix(0,1,-1,0,0,0)">
    <g id="copper1">
     <g id="copper0">
      <circle fill="white" cx="5.04" cy="5.04" stroke="white" id="connector0pin" r="2.088" stroke-width="2.16"/>
      <circle fill="white" cx="5.04" cy="12.24" stroke="white" id="connector1pin" r="2.088" stroke-width="2.16"/>
     </g>
    </g>
   </g>
  </g>
 </g>
 <g partID="12144982">
  <g transform="translate(364.363,46.7066)">
   <g transform="matrix(-1,0,0,-1,0,0)">
    <g flipped="1" id="copper1">
     <g transform="matrix(-1, 0, 0, 1, 37.417, 0)">
      <g>
       <g>
        <g>
         <rect width="4.176" x="2.944" y="9.239" fill="white" height="4.176" stroke="white" id="square" stroke-width="0.72"/>
         <circle fill="white" cx="5.032" cy="11.327" stroke="white" id="connector0pin" r="2.088" stroke-width="1.72"/>
         <circle fill="white" cx="5.031" cy="18.527" stroke="white" id="connector1pin" r="2.088" stroke-width="1.72"/>
         <circle fill="white" cx="5.032" cy="25.727" stroke="white" id="connector2pin" r="2.089" stroke-width="1.72"/>
         <g>
          <circle fill="white" cx="26.292" cy="4.548" stroke="white" id="noconnector" r="3.823" stroke-width="2.0044"/>
          <circle fill="white" cx="26.292" cy="32.506" stroke="white" id="noconnector_1_" r="3.823" stroke-width="2.0044"/>
         </g>
        </g>
        <g>
         <g id="copper0">
          <rect width="4.176" x="2.944" y="9.239" fill="white" height="4.176" stroke="white" id="square" stroke-width="0.72"/>
          <circle fill="white" cx="5.032" cy="11.327" stroke="white" id="connector0pin" r="2.088" stroke-width="0.72"/>
          <circle fill="white" cx="5.031" cy="18.527" stroke="white" id="connector1pin" r="2.088" stroke-width="0.72"/>
          <circle fill="white" cx="5.032" cy="25.727" stroke="white" id="connector2pin" r="2.089" stroke-width="0.72"/>
          <g>
           <circle fill="white" cx="26.292" cy="4.548" stroke="white" id="noconnector" r="3.823" stroke-width="2.0044"/>
           <circle fill="white" cx="26.292" cy="32.506" stroke="white" id="noconnector_1_" r="3.823" stroke-width="2.0044"/>
          </g>
         </g>
        </g>
       </g>
      </g>
     </g>
    </g>
   </g>
  </g>
 </g>
 <g partID="12145282">
  <g transform="translate(418.419,46.6534)">
   <g transform="matrix(-1,0,0,-1,0,0)">
    <g flipped="1" id="copper1">
     <g transform="matrix(-1, 0, 0, 1, 37.417, 0)">
      <g>
       <g>
        <g>
         <rect width="4.176" x="2.944" y="9.239" fill="white" height="4.176" stroke="white" id="square" stroke-width="0.72"/>
         <circle fill="white" cx="5.032" cy="11.327" stroke="white" id="connector0pin" r="2.088" stroke-width="1.72"/>
         <circle fill="white" cx="5.031" cy="18.527" stroke="white" id="connector1pin" r="2.088" stroke-width="1.72"/>
         <circle fill="white" cx="5.032" cy="25.727" stroke="white" id="connector2pin" r="2.089" stroke-width="1.72"/>
         <g>
          <circle fill="white" cx="26.292" cy="4.548" stroke="white" id="noconnector" r="3.823" stroke-width="2.0044"/>
          <circle fill="white" cx="26.292" cy="32.506" stroke="white" id="noconnector_1_" r="3.823" stroke-width="2.0044"/>
         </g>
        </g>
        <g>
         <g id="copper0">
          <rect width="4.176" x="2.944" y="9.239" fill="white" height="4.176" stroke="white" id="square" stroke-width="0.72"/>
          <circle fill="white" cx="5.032" cy="11.327" stroke="white" id="connector0pin" r="2.088" stroke-width="0.72"/>
          <circle fill="white" cx="5.031" cy="18.527" stroke="white" id="connector1pin" r="2.088" stroke-width="0.72"/>
          <circle fill="white" cx="5.032" cy="25.727" stroke="white" id="connector2pin" r="2.089" stroke-width="0.72"/>
          <g>
           <circle fill="white" cx="26.292" cy="4.548" stroke="white" id="noconnector" r="3.823" stroke-width="2.0044"/>
           <circle fill="white" cx="26.292" cy="32.506" stroke="white" id="noconnector_1_" r="3.823" stroke-width="2.0044"/>
          </g>
         </g>
        </g>
       </g>
      </g>
     </g>
    </g>
   </g>
  </g>
 </g>
 <g partID="12145712">
  <g transform="translate(91.8456,10.4896)">
   <g flipped="1" id="copper1">
    <g transform="matrix(-1, 0, 0, 1, 10.08, 0)">
     <g>
      <g>
       <g>
        <circle fill="white" cx="5.04" cy="5.04" stroke="white" id="connector0pin" r="2.088" stroke-width="2.16"/>
       </g>
       <g>
        <g id="copper0">
         <circle fill="white" cx="5.04" cy="5.04" stroke="white" id="connector0pin" r="2.088" stroke-width="2.16"/>
        </g>
       </g>
      </g>
     </g>
    </g>
   </g>
  </g>
 </g>
 <g partID="12145922">
  <g transform="translate(264.528,-1.1722)">
   <g transform="matrix(0,1,-1,0,0,0)">
    <g flipped="1" id="copper1">
     <g transform="matrix(-1, 0, 0, 1, 23.37, 0)">
      <g>
       <g transform="matrix(1, 0, 0, 1, -60.315, -52.412)">
        <g>
         <g>
          <g gorn="0.4.0.0.0.0.0.0" style="display:inline">
           <g gorn="0.4.0.0.0.0.0.0.0" style="display:inline" id="copper1">
            <circle stroke-opacity="1" fill="white" gorn="0.4.0.0.0.0.0.0.0.0" cx="72" cy="59.04" stroke="white" style="fill-rule:evenodd;stroke-linecap:butt;stroke-linejoin:miter;stroke-miterlimit:4;stroke-dasharray:none;" id="connector3pin" r="4.68" stroke-width="2.88"/>
            <circle stroke-opacity="1" fill="white" gorn="0.4.0.0.0.0.0.0.0.1" cx="72" cy="84.744" stroke="white" style="fill-rule:evenodd;stroke-linecap:butt;stroke-linejoin:miter;stroke-miterlimit:4;stroke-dasharray:none;" id="connector4pin" r="4.68" stroke-width="2.88"/>
            <circle stroke-opacity="1" fill="white" gorn="0.4.0.0.0.0.0.0.0.2" cx="72" cy="72" stroke="white" style="display:inline;fill-rule:evenodd;stroke-linecap:butt;stroke-linejoin:miter;stroke-miterlimit:4;stroke-dasharray:none;" id="connector0pin" r="4.68" stroke-width="2.88"/>
           </g>
          </g>
          <g gorn="0.4.0.0.0.0.0.0.0" style="display:inline">
           <circle stroke-opacity="1" fill="white" gorn="0.4.0.0.0.0.0.0.0.0" cx="72" cy="59.04" stroke="white" style="fill-rule:evenodd;stroke-linecap:butt;stroke-linejoin:miter;stroke-miterlimit:4;stroke-dasharray:none;" id="connector3pin" r="4.68" stroke-width="2.88"/>
           <circle stroke-opacity="1" fill="white" gorn="0.4.0.0.0.0.0.0.0.1" cx="72" cy="84.744" stroke="white" style="fill-rule:evenodd;stroke-linecap:butt;stroke-linejoin:miter;stroke-miterlimit:4;stroke-dasharray:none;" id="connector4pin" r="4.68" stroke-width="2.88"/>
           <circle stroke-opacity="1" fill="white" gorn="0.4.0.0.0.0.0.0.0.2" cx="72" cy="72" stroke="white" style="display:inline;fill-rule:evenodd;stroke-linecap:butt;stroke-linejoin:miter;stroke-miterlimit:4;stroke-dasharray:none;" id="connector0pin" r="4.68" stroke-width="2.88"/>
          </g>
         </g>
        </g>
       </g>
      </g>
     </g>
    </g>
   </g>
  </g>
 </g>
 <g partID="12146582">
  <g transform="translate(264.464,34.9944)">
   <g transform="matrix(0,1,-1,0,0,0)">
    <g flipped="1" id="copper1">
     <g transform="matrix(-1, 0, 0, 1, 23.37, 0)">
      <g>
       <g transform="matrix(1, 0, 0, 1, -60.315, -52.412)">
        <g>
         <g>
          <g gorn="0.4.0.0.0.0.0.0" style="display:inline">
           <g gorn="0.4.0.0.0.0.0.0.0" style="display:inline" id="copper1">
            <circle stroke-opacity="1" fill="white" gorn="0.4.0.0.0.0.0.0.0.0" cx="72" cy="59.04" stroke="white" style="fill-rule:evenodd;stroke-linecap:butt;stroke-linejoin:miter;stroke-miterlimit:4;stroke-dasharray:none;" id="connector3pin" r="4.68" stroke-width="2.88"/>
            <circle stroke-opacity="1" fill="white" gorn="0.4.0.0.0.0.0.0.0.1" cx="72" cy="84.744" stroke="white" style="fill-rule:evenodd;stroke-linecap:butt;stroke-linejoin:miter;stroke-miterlimit:4;stroke-dasharray:none;" id="connector4pin" r="4.68" stroke-width="2.88"/>
            <circle stroke-opacity="1" fill="white" gorn="0.4.0.0.0.0.0.0.0.2" cx="72" cy="72" stroke="white" style="display:inline;fill-rule:evenodd;stroke-linecap:butt;stroke-linejoin:miter;stroke-miterlimit:4;stroke-dasharray:none;" id="connector0pin" r="4.68" stroke-width="2.88"/>
           </g>
          </g>
          <g gorn="0.4.0.0.0.0.0.0.0" style="display:inline">
           <circle stroke-opacity="1" fill="white" gorn="0.4.0.0.0.0.0.0.0.0" cx="72" cy="59.04" stroke="white" style="fill-rule:evenodd;stroke-linecap:butt;stroke-linejoin:miter;stroke-miterlimit:4;stroke-dasharray:none;" id="connector3pin" r="4.68" stroke-width="2.88"/>
           <circle stroke-opacity="1" fill="white" gorn="0.4.0.0.0.0.0.0.0.1" cx="72" cy="84.744" stroke="white" style="fill-rule:evenodd;stroke-linecap:butt;stroke-linejoin:miter;stroke-miterlimit:4;stroke-dasharray:none;" id="connector4pin" r="4.68" stroke-width="2.88"/>
           <circle stroke-opacity="1" fill="white" gorn="0.4.0.0.0.0.0.0.0.2" cx="72" cy="72" stroke="white" style="display:inline;fill-rule:evenodd;stroke-linecap:butt;stroke-linejoin:miter;stroke-miterlimit:4;stroke-dasharray:none;" id="connector0pin" r="4.68" stroke-width="2.88"/>
          </g>
         </g>
        </g>
       </g>
      </g>
     </g>
    </g>
   </g>
  </g>
 </g>
 <g partID="12148152">
  <g transform="translate(210.601,16.4278)">
   <g transform="matrix(0,1,-1,0,0,0)">
    <g flipped="1" id="copper1">
     <g transform="matrix(-1, 0, 0, 1, 23.37, 0)">
      <g>
       <g transform="matrix(1, 0, 0, 1, -60.315, -52.412)">
        <g>
         <g>
          <g gorn="0.4.0.0.0.0.0.0" style="display:inline">
           <g gorn="0.4.0.0.0.0.0.0.0" style="display:inline" id="copper1">
            <circle stroke-opacity="1" fill="white" gorn="0.4.0.0.0.0.0.0.0.0" cx="72" cy="59.04" stroke="white" style="fill-rule:evenodd;stroke-linecap:butt;stroke-linejoin:miter;stroke-miterlimit:4;stroke-dasharray:none;" id="connector3pin" r="4.68" stroke-width="2.88"/>
            <circle stroke-opacity="1" fill="white" gorn="0.4.0.0.0.0.0.0.0.1" cx="72" cy="84.744" stroke="white" style="fill-rule:evenodd;stroke-linecap:butt;stroke-linejoin:miter;stroke-miterlimit:4;stroke-dasharray:none;" id="connector4pin" r="4.68" stroke-width="2.88"/>
            <circle stroke-opacity="1" fill="white" gorn="0.4.0.0.0.0.0.0.0.2" cx="72" cy="72" stroke="white" style="display:inline;fill-rule:evenodd;stroke-linecap:butt;stroke-linejoin:miter;stroke-miterlimit:4;stroke-dasharray:none;" id="connector0pin" r="4.68" stroke-width="2.88"/>
           </g>
          </g>
          <g gorn="0.4.0.0.0.0.0.0.0" style="display:inline">
           <circle stroke-opacity="1" fill="white" gorn="0.4.0.0.0.0.0.0.0.0" cx="72" cy="59.04" stroke="white" style="fill-rule:evenodd;stroke-linecap:butt;stroke-linejoin:miter;stroke-miterlimit:4;stroke-dasharray:none;" id="connector3pin" r="4.68" stroke-width="2.88"/>
           <circle stroke-opacity="1" fill="white" gorn="0.4.0.0.0.0.0.0.0.1" cx="72" cy="84.744" stroke="white" style="fill-rule:evenodd;stroke-linecap:butt;stroke-linejoin:miter;stroke-miterlimit:4;stroke-dasharray:none;" id="connector4pin" r="4.68" stroke-width="2.88"/>
           <circle stroke-opacity="1" fill="white" gorn="0.4.0.0.0.0.0.0.0.2" cx="72" cy="72" stroke="white" style="display:inline;fill-rule:evenodd;stroke-linecap:butt;stroke-linejoin:miter;stroke-miterlimit:4;stroke-dasharray:none;" id="connector0pin" r="4.68" stroke-width="2.88"/>
          </g>
         </g>
        </g>
       </g>
      </g>
     </g>
    </g>
   </g>
  </g>
 </g>
 <g partID="12148352">
  <g transform="translate(318.437,-1.1722)">
   <g transform="matrix(0,1,-1,0,0,0)">
    <g flipped="1" id="copper1">
     <g transform="matrix(-1, 0, 0, 1, 23.37, 0)">
      <g>
       <g transform="matrix(1, 0, 0, 1, -60.315, -52.412)">
        <g>
         <g>
          <g gorn="0.4.0.0.0.0.0.0" style="display:inline">
           <g gorn="0.4.0.0.0.0.0.0.0" style="display:inline" id="copper1">
            <circle stroke-opacity="1" fill="white" gorn="0.4.0.0.0.0.0.0.0.0" cx="72" cy="59.04" stroke="white" style="fill-rule:evenodd;stroke-linecap:butt;stroke-linejoin:miter;stroke-miterlimit:4;stroke-dasharray:none;" id="connector3pin" r="4.68" stroke-width="2.88"/>
            <circle stroke-opacity="1" fill="white" gorn="0.4.0.0.0.0.0.0.0.1" cx="72" cy="84.744" stroke="white" style="fill-rule:evenodd;stroke-linecap:butt;stroke-linejoin:miter;stroke-miterlimit:4;stroke-dasharray:none;" id="connector4pin" r="4.68" stroke-width="2.88"/>
            <circle stroke-opacity="1" fill="white" gorn="0.4.0.0.0.0.0.0.0.2" cx="72" cy="72" stroke="white" style="display:inline;fill-rule:evenodd;stroke-linecap:butt;stroke-linejoin:miter;stroke-miterlimit:4;stroke-dasharray:none;" id="connector0pin" r="4.68" stroke-width="2.88"/>
           </g>
          </g>
          <g gorn="0.4.0.0.0.0.0.0.0" style="display:inline">
           <circle stroke-opacity="1" fill="white" gorn="0.4.0.0.0.0.0.0.0.0" cx="72" cy="59.04" stroke="white" style="fill-rule:evenodd;stroke-linecap:butt;stroke-linejoin:miter;stroke-miterlimit:4;stroke-dasharray:none;" id="connector3pin" r="4.68" stroke-width="2.88"/>
           <circle stroke-opacity="1" fill="white" gorn="0.4.0.0.0.0.0.0.0.1" cx="72" cy="84.744" stroke="white" style="fill-rule:evenodd;stroke-linecap:butt;stroke-linejoin:miter;stroke-miterlimit:4;stroke-dasharray:none;" id="connector4pin" r="4.68" stroke-width="2.88"/>
           <circle stroke-opacity="1" fill="white" gorn="0.4.0.0.0.0.0.0.0.2" cx="72" cy="72" stroke="white" style="display:inline;fill-rule:evenodd;stroke-linecap:butt;stroke-linejoin:miter;stroke-miterlimit:4;stroke-dasharray:none;" id="connector0pin" r="4.68" stroke-width="2.88"/>
          </g>
         </g>
        </g>
       </g>
      </g>
     </g>
    </g>
   </g>
  </g>
 </g>
 <g partID="12149892">
  <g transform="translate(46.7056,8.39624)">
   <g transform="matrix(0,1,-1,0,0,0)">
    <g flipped="1" id="copper1">
     <g transform="matrix(-1, 0, 0, 1, 10.08, 0)">
      <g>
       <g>
        <g>
         <circle fill="white" cx="5.04" cy="5.04" stroke="white" id="connector0pin" r="2.088" stroke-width="2.16"/>
        </g>
        <g>
         <g id="copper0">
          <circle fill="white" cx="5.04" cy="5.04" stroke="white" id="connector0pin" r="2.088" stroke-width="2.16"/>
         </g>
        </g>
       </g>
      </g>
     </g>
    </g>
   </g>
  </g>
 </g>
 <g partID="12149982">
  <g transform="translate(290.244,38.76)">
   <g flipped="1" id="copper1">
    <g transform="matrix(-1, 0, 0, 1, 17.5752, 0)">
     <g>
      <g>
       <g>
        <g id="copper1">
         <circle fill="white" cx="8.7876" cy="10.6336" stroke="white" id="connector1pad" r="1.7008" stroke-width="1.85384"/>
         <rect width="3.4016" x="7.0868" y="8.9328" fill="white" height="3.4016" stroke="white" stroke-width="1.85384"/>
         <circle fill="white" cx="8.7876" cy="3.5464" stroke="white" id="connector0pad" r="1.7008" stroke-width="1.85384"/>
        </g>
       </g>
       <g>
        <circle fill="white" cx="8.7876" cy="10.6336" stroke="white" id="connector1pad" r="1.7008" stroke-width="1.85384"/>
        <rect width="3.4016" x="7.0868" y="8.9328" fill="white" height="3.4016" stroke="white" stroke-width="1.85384"/>
        <circle fill="white" cx="8.7876" cy="3.5464" stroke="white" id="connector0pad" r="1.7008" stroke-width="1.85384"/>
       </g>
      </g>
     </g>
    </g>
   </g>
  </g>
 </g>
 <g partID="12156232">
  <g transform="translate(145.879,12.4496)">
   <g flipped="1" id="copper1">
    <g transform="matrix(-1, 0, 0, 1, 10.08, 0)">
     <g>
      <g>
       <g>
        <circle fill="white" cx="5.04" cy="5.04" stroke="white" id="connector0pin" r="2.088" stroke-width="2.16"/>
       </g>
       <g>
        <g id="copper0">
         <circle fill="white" cx="5.04" cy="5.04" stroke="white" id="connector0pin" r="2.088" stroke-width="2.16"/>
        </g>
       </g>
      </g>
     </g>
    </g>
   </g>
  </g>
 </g>
 <g partID="12221471">
  <g transform="translate(322.71,44.5026)">
   <g id="copper1">
    <circle fill="white" cx="3.01732" cy="3.01732" stroke="white" r="0.992124" id="connector0pin" stroke-width="1.57039"/>
   </g>
  </g>
 </g>
 <g partID="12222251">
  <g transform="translate(248.406,35.8626)">
   <g id="copper1">
    <circle fill="white" cx="3.01732" cy="3.01732" stroke="white" r="0.992124" id="connector0pin" stroke-width="1.57039"/>
   </g>
  </g>
 </g>
 <g partID="12223371">
  <g transform="translate(371.094,16.8546)">
   <g id="copper1">
    <circle fill="white" cx="3.01732" cy="3.01732" stroke="white" r="0.992124" id="connector0pin" stroke-width="1.57039"/>
   </g>
  </g>
 </g>
 <g partID="12224331">
  <g transform="translate(263.958,11.6706)">
   <g id="copper1">
    <circle fill="white" cx="3.01732" cy="3.01732" stroke="white" r="0.992124" id="connector0pin" stroke-width="1.57039"/>
   </g>
  </g>
 </g>
 <g partID="12224631">
  <g transform="translate(333.078,8.21464)">
   <g id="copper1">
    <circle fill="white" cx="3.01732" cy="3.01732" stroke="white" r="0.992124" id="connector0pin" stroke-width="1.57039"/>
   </g>
  </g>
 </g>
 <g partID="12224851">
  <g transform="translate(393.558,15.1266)">
   <g id="copper1">
    <circle fill="white" cx="3.01732" cy="3.01732" stroke="white" r="0.992124" id="connector0pin" stroke-width="1.57039"/>
   </g>
  </g>
 </g>
 <g partID="12225271">
  <g transform="translate(286.422,28.9506)">
   <g id="copper1">
    <circle fill="white" cx="3.01732" cy="3.01732" stroke="white" r="0.992124" id="connector0pin" stroke-width="1.57039"/>
   </g>
  </g>
 </g>
 <g partID="12225771">
  <g transform="translate(194.838,16.8546)">
   <g id="copper1">
    <circle fill="white" cx="3.01732" cy="3.01732" stroke="white" r="0.992124" id="connector0pin" stroke-width="1.57039"/>
   </g>
  </g>
 </g>
 <g partID="12226071">
  <g transform="translate(215.574,42.7746)">
   <g id="copper1">
    <circle fill="white" cx="3.01732" cy="3.01732" stroke="white" r="0.992124" id="connector0pin" stroke-width="1.57039"/>
   </g>
  </g>
 </g>
 <g partID="12226131">
  <g transform="translate(222.48,16.848)">
   <g id="copper1">
    <circle fill="white" cx="4.752" cy="4.752" stroke="white" r="1.98" id="connector0pad" stroke-width="2.16"/>
    <circle fill="white" cx="172.368" cy="23.76" stroke="white" r="1.98" id="connector1pad" stroke-width="2.16"/>
   </g>
  </g>
 </g>
 <g partID="12226451">
  <g transform="translate(201.744,20.304)">
   <g id="copper1">
    <circle fill="white" cx="4.752" cy="28.944" stroke="white" r="1.98" id="connector0pad" stroke-width="2.16"/>
    <circle fill="white" cx="196.56" cy="4.752" stroke="white" r="1.98" id="connector1pad" stroke-width="2.16"/>
   </g>
  </g>
 </g>
 <g partID="12226531">
  <g transform="translate(175.83,42.7746)">
   <g id="copper1">
    <circle fill="white" cx="3.01732" cy="3.01732" stroke="white" r="0.992124" id="connector0pin" stroke-width="1.57039"/>
   </g>
  </g>
 </g>
 <g partID="12226851">
  <g transform="translate(397.014,30.6786)">
   <g id="copper1">
    <circle fill="white" cx="3.01732" cy="3.01732" stroke="white" r="0.992124" id="connector0pin" stroke-width="1.57039"/>
   </g>
  </g>
 </g>
 <g partID="12153580">
  <g transform="translate(290.383,29.8189)">
   <g transform="matrix(-1,0,0,-1,0,0)">
    <g id="copper1">
     <rect width="3.40157" x="0.566929" y="0.566929" fill="white" height="3.11811" stroke="white" fill-opacity="1" id="connector0pad" stroke-width="0.72"/>
     <rect width="3.40157" x="5.38583" y="0.566929" fill="white" height="3.11811" stroke="white" fill-opacity="1" id="connector1pad" stroke-width="0.72"/>
    </g>
   </g>
  </g>
 </g>
 <g partID="12153840">
  <g transform="translate(366.042,22.047)">
   <g id="copper1">
    <rect width="3.40157" x="0.566929" y="0.566929" fill="white" height="3.11811" stroke="white" fill-opacity="1" id="connector0pad" stroke-width="0.72"/>
    <rect width="3.40157" x="5.38583" y="0.566929" fill="white" height="3.11811" stroke="white" fill-opacity="1" id="connector1pad" stroke-width="0.72"/>
   </g>
  </g>
 </g>
 <g partID="12154180">
  <g transform="translate(215.032,3.70906)">
   <g transform="matrix(0,1,-1,0,0,0)">
    <g id="copper1">
     <rect width="3.40157" x="0.566929" y="0.566929" fill="white" height="3.11811" stroke="white" fill-opacity="1" id="connector0pad" stroke-width="0.72"/>
     <rect width="3.40157" x="5.38583" y="0.566929" fill="white" height="3.11811" stroke="white" fill-opacity="1" id="connector1pad" stroke-width="0.72"/>
    </g>
   </g>
  </g>
 </g>
 <g partID="12154520">
  <g transform="translate(370.202,37.9936)">
   <g id="copper1">
    <rect width="3.40157" x="0.566929" y="0.566929" fill="white" height="3.11811" stroke="white" fill-opacity="1" id="connector0pad" stroke-width="0.72"/>
    <rect width="3.40157" x="5.38583" y="0.566929" fill="white" height="3.11811" stroke="white" fill-opacity="1" id="connector1pad" stroke-width="0.72"/>
   </g>
  </g>
 </g>
 <g partID="12154860">
  <g transform="translate(337.456,1.40696)">
   <g id="copper1">
    <rect width="3.40157" x="0.566929" y="0.566929" fill="white" height="3.11811" stroke="white" fill-opacity="1" id="connector0pad" stroke-width="0.72"/>
    <rect width="3.40157" x="5.38583" y="0.566929" fill="white" height="3.11811" stroke="white" fill-opacity="1" id="connector1pad" stroke-width="0.72"/>
   </g>
  </g>
 </g>
 <g partID="12155120">
  <g transform="translate(268.893,51.4432)">
   <g transform="matrix(0,-1,1,0,0,0)">
    <g id="copper1">
     <rect width="3.40157" x="0.566929" y="0.566929" fill="white" height="3.11811" stroke="white" fill-opacity="1" id="connector0pad" stroke-width="0.72"/>
     <rect width="3.40157" x="5.38583" y="0.566929" fill="white" height="3.11811" stroke="white" fill-opacity="1" id="connector1pad" stroke-width="0.72"/>
    </g>
   </g>
  </g>
 </g>
 <g partID="9072401">
  <g transform="translate(413.226,3.87072)">
   <g id="copper1">
    <circle fill="white" cx="6.4189" cy="6.4189" stroke="white" r="4.67716" id="nonconn0" stroke-width="1.00347"/>
   </g>
  </g>
 </g>
 <g partID="12217351">
  <g transform="translate(123.823,14.9675)">
   <g id="copper1">
    <circle fill="white" cx="13.2221" cy="13.2221" stroke="white" r="11.4803" id="nonconn0" stroke-width="1.00347"/>
   </g>
  </g>
 </g>
 <g partID="12217331">
  <g transform="translate(69.8232,14.9675)">
   <g id="copper1">
    <circle fill="white" cx="13.2221" cy="13.2221" stroke="white" r="11.4803" id="nonconn0" stroke-width="1.00347"/>
   </g>
  </g>
 </g>
 <g partID="12217311">
  <g transform="translate(15.9232,14.9675)">
   <g id="copper1">
    <circle fill="white" cx="13.2221" cy="13.2221" stroke="white" r="11.4803" id="nonconn0" stroke-width="1.00347"/>
   </g>
  </g>
 </g>
 <g partID="9234271">
  <g transform="translate(5.0712,39.3859)">
   <g id="copper1">
    <circle fill="white" cx="6.4189" cy="6.4189" stroke="white" r="4.67716" id="nonconn0" stroke-width="1.00347"/>
   </g>
  </g>
 </g>
 <g partID="9072381">
  <g transform="translate(413.226,39.3859)">
   <g id="copper1">
    <circle fill="white" cx="6.4189" cy="6.4189" stroke="white" r="4.67716" id="nonconn0" stroke-width="1.00347"/>
   </g>
  </g>
 </g>
 <g partID="9072311">
  <g transform="translate(4.4264,3.87072)">
   <g id="copper1">
    <circle fill="white" cx="6.4189" cy="6.4189" stroke="white" r="4.67716" id="nonconn0" stroke-width="1.00347"/>
   </g>
  </g>
 </g>
</svg>
